<svg width="137" height="32" viewBox="0 0 137 32" fill="none" xmlns="http://www.w3.org/2000/svg">
<path fill-rule="evenodd" clip-rule="evenodd" d="M109.065 18.4541V0.956881L112.008 0V5.13982C112.417 4.67505 113.016 4.31964 113.779 4.31964H117.431C119.421 4.31964 120.647 5.41321 120.647 7.60037V15.0367C120.647 17.3059 119.339 18.4541 117.159 18.4541H109.065ZM112.008 15.5015H116.287C117.186 15.5015 117.649 14.9 117.649 14.1618V8.69395C117.649 7.73707 117.131 7.32698 116.396 7.32698H113.343C112.607 7.32698 112.008 7.81909 112.008 8.80331V15.5015ZM122.073 0.738273V2.89809H125.043V0.738273H122.073ZM122.073 4.31974V18.4543H125.043V4.31974H122.073ZM129.451 15.1752C129.451 17.335 130.677 18.4559 132.721 18.4559H137V15.5306H133.702C132.939 15.5306 132.503 15.0658 132.503 14.3003V7.27408H136.809V4.32141H132.503V1.45077L129.451 2.68105V4.32141H126.099V7.27408H129.451V15.1752ZM108.181 4.31931H105.074L102.376 13.4507L99.5421 4.31931H97.062L94.3095 13.2593L91.5297 4.31931H88.4774L92.8378 18.4538H95.6994L98.3429 10.17L100.959 18.4538H103.821L108.181 4.31931ZM80.4073 18.4538C78.1726 18.4538 76.8917 17.3876 76.8917 15.1731V7.68207C76.8917 5.54959 78.1181 4.31931 80.4073 4.31931H84.9313C87.1388 4.31931 88.4742 5.54959 88.4742 7.68207V15.1731C88.4742 17.3056 87.0843 18.4538 84.9313 18.4538H80.4073ZM81.0069 15.5285H84.359C85.0948 15.5285 85.4764 15.0364 85.4764 14.4076V8.44757C85.4764 7.68207 85.0403 7.27198 84.359 7.27198H80.9797C80.2438 7.27198 79.8623 7.70941 79.8623 8.44757V14.4076C79.8623 15.009 80.2711 15.5285 81.0069 15.5285ZM64.2097 4.37399V18.4538H67.153V8.77565C67.153 7.87344 67.6708 7.32665 68.4884 7.32665H71.5135C72.222 7.32665 72.7398 7.81876 72.7398 8.74831V18.4538H75.7649V7.60005C75.7649 5.46757 74.6475 4.31931 72.6853 4.31931H69.1152C68.0936 4.31931 67.5494 4.90457 67.1686 5.31408L67.153 5.33087V4.37399H64.2097ZM50.0914 18.4545V15.3651H58.2673C59.1121 15.3651 59.4664 14.873 59.4664 14.0801V13.0959C59.4664 12.6585 59.2484 12.2757 58.8123 12.1664L52.1626 10.5533C50.5819 10.1979 49.7098 9.32307 49.7098 7.60068V4.48398C49.7098 2.37884 50.8545 1.3126 53.0074 1.3126H61.9464V4.40196H54.1521C53.3072 4.40196 52.9257 4.89407 52.9257 5.57756V6.67114C52.9257 7.08123 53.1437 7.49132 53.6888 7.62802L60.393 9.24105C61.8646 9.59646 62.7367 10.5807 62.7367 12.2211V15.3651C62.7367 17.3609 61.4013 18.4545 59.3301 18.4545H50.0914ZM99.1888 27.1034L97.1333 29.6325H97.8741L99.5612 27.5602L101.239 29.6325H102L99.9344 27.1078L101.877 24.7345H101.136L99.5618 26.6749L97.9976 24.7345H97.2465L99.1888 27.1034ZM95.6547 23.4419V22.6643H96.4984V23.4419H95.6547ZM95.7576 29.6326V24.7346H96.3852V29.6326H95.7576ZM91.0953 31.3594C91.4657 31.4738 91.8636 31.5311 92.2888 31.5311C92.7553 31.5311 93.1463 31.4503 93.4618 31.2887C93.7773 31.1271 94.014 30.8814 94.1717 30.5515C94.3295 30.2283 94.4084 29.8277 94.4084 29.3497V24.7344H93.791V25.6602C93.6736 25.3974 93.4919 25.1797 93.2457 25.0071C92.9096 24.7647 92.5118 24.6435 92.0522 24.6435C91.5926 24.6435 91.1948 24.7479 90.8587 24.9566C90.5225 25.1586 90.2619 25.4413 90.0767 25.8049C89.8983 26.1685 89.8092 26.5926 89.8092 27.0774C89.8092 27.5621 89.8983 27.9897 90.0767 28.36C90.2619 28.7235 90.5225 29.0097 90.8587 29.2184C91.1948 29.4204 91.5926 29.5214 92.0522 29.5214C92.5118 29.5214 92.9096 29.4035 93.2457 29.1679C93.4951 28.993 93.6803 28.7681 93.8013 28.4931V29.4406C93.8013 29.9455 93.671 30.3326 93.4103 30.602C93.1497 30.878 92.769 31.016 92.2683 31.016C92.0213 31.016 91.7915 30.9958 91.5789 30.9554C91.3731 30.915 91.1708 30.8477 90.9718 30.7534C90.7729 30.6592 90.5671 30.538 90.3545 30.3899L90.1178 30.8544C90.4059 31.0766 90.7318 31.2449 91.0953 31.3594ZM93.3486 28.4811C93.0468 28.8245 92.6387 28.9962 92.1242 28.9962C91.6098 28.9962 91.2016 28.8245 90.8998 28.4811C90.598 28.131 90.4471 27.6631 90.4471 27.0774C90.4471 26.4916 90.598 26.0271 90.8998 25.6837C91.2016 25.3403 91.6098 25.1687 92.1242 25.1687C92.6387 25.1687 93.0468 25.3403 93.3486 25.6837C93.6504 26.0271 93.8013 26.4916 93.8013 27.0774C93.8013 27.6631 93.6504 28.131 93.3486 28.4811ZM86.7861 29.7132C86.3197 29.7132 85.915 29.6089 85.572 29.4002C85.2291 29.1915 84.9615 28.8986 84.7695 28.5215C84.5843 28.1445 84.4917 27.6968 84.4917 27.1784C84.4917 26.6667 84.5843 26.2223 84.7695 25.8453C84.9615 25.4615 85.2291 25.1653 85.572 24.9566C85.915 24.7479 86.3197 24.6435 86.7861 24.6435C87.2594 24.6435 87.6676 24.7479 88.0105 24.9566C88.3535 25.1653 88.6176 25.4615 88.8028 25.8453C88.9949 26.2223 89.0909 26.6667 89.0909 27.1784C89.0909 27.6968 88.9949 28.1445 88.8028 28.5215C88.6176 28.8986 88.3535 29.1915 88.0105 29.4002C87.6676 29.6089 87.2594 29.7132 86.7861 29.7132ZM86.7861 29.1982C87.3006 29.1982 87.7053 29.0231 88.0002 28.673C88.3021 28.3229 88.453 27.8247 88.453 27.1784C88.453 26.5388 88.3021 26.0439 88.0002 25.6938C87.7053 25.3437 87.3006 25.1687 86.7861 25.1687C86.2854 25.1687 85.8841 25.3437 85.5823 25.6938C85.2805 26.0439 85.1296 26.5388 85.1296 27.1784C85.1296 27.8247 85.2805 28.3229 85.5823 28.673C85.8841 29.0231 86.2854 29.1982 86.7861 29.1982ZM82.595 29.2895C82.8488 29.5723 83.2089 29.7137 83.6753 29.7137C83.7645 29.7137 83.8537 29.7069 83.9429 29.6935C84.032 29.6867 84.1281 29.6733 84.2309 29.6531L84.2515 29.1178C84.1829 29.138 84.1075 29.1548 84.0252 29.1683C83.9497 29.175 83.8674 29.1784 83.7782 29.1784C83.5793 29.1784 83.4113 29.1346 83.2741 29.0471C83.1369 28.9596 83.0306 28.8317 82.9551 28.6634C82.8865 28.4883 82.8522 28.2729 82.8522 28.017V22.513H82.2246V28.0877C82.2246 28.6061 82.348 29.0067 82.595 29.2895ZM78.7003 29.7132C78.3642 29.7132 78.0624 29.6493 77.7949 29.5214C77.5342 29.3934 77.325 29.2184 77.1672 28.9962C77.0163 28.774 76.9409 28.5249 76.9409 28.2489C76.9409 27.8853 77.0335 27.5992 77.2187 27.3905C77.4039 27.1817 77.716 27.037 78.155 26.9562C78.594 26.8687 79.1976 26.8249 79.9659 26.8249H80.2848V26.4613C80.2848 26.0102 80.1922 25.6837 80.007 25.4817C79.8218 25.273 79.5269 25.1687 79.1222 25.1687C78.8203 25.1687 78.5288 25.2124 78.2476 25.2999C77.9732 25.3875 77.6885 25.5255 77.3936 25.714L77.1467 25.2393C77.325 25.1182 77.5205 25.0138 77.7331 24.9263C77.9526 24.8388 78.179 24.7714 78.4122 24.7243C78.6523 24.6704 78.8855 24.6435 79.1119 24.6435C79.5166 24.6435 79.8492 24.7108 80.1099 24.8455C80.3774 24.9801 80.5729 25.1821 80.6964 25.4514C80.8267 25.7207 80.8919 26.0675 80.8919 26.4916V29.6324H80.2951V28.7614C80.2359 28.8959 80.1604 29.018 80.0687 29.1275C79.911 29.316 79.7155 29.4608 79.4823 29.5618C79.2491 29.6627 78.9884 29.7132 78.7003 29.7132ZM80.2848 27.6126V27.2794H79.9761C79.5166 27.2794 79.129 27.2928 78.8135 27.3198C78.5048 27.3467 78.2613 27.3972 78.083 27.4712C77.9046 27.5386 77.7777 27.6328 77.7023 27.754C77.6337 27.8752 77.5994 28.0233 77.5994 28.1984C77.5994 28.5013 77.7057 28.7471 77.9183 28.9356C78.131 29.1241 78.4191 29.2184 78.7826 29.2184C79.0776 29.2184 79.3348 29.1511 79.5543 29.0164C79.7806 28.875 79.959 28.6831 80.0893 28.4408C80.2197 28.1984 80.2848 27.9223 80.2848 27.6126ZM73.9996 24.734V29.6321H74.6375V26.764C74.6375 26.3061 74.7713 25.9426 75.0388 25.6733C75.3063 25.404 75.6836 25.2457 76.1706 25.1986L76.613 25.1481L76.5513 24.6129L76.2941 24.6331C75.8208 24.6667 75.4366 24.7845 75.1417 24.9865C74.9201 25.1419 74.7452 25.355 74.6169 25.6258V24.734H73.9996ZM70.6669 29.7132C70.2004 29.7132 69.7957 29.6089 69.4528 29.4002C69.1098 29.1915 68.8423 28.8986 68.6502 28.5215C68.465 28.1445 68.3724 27.6968 68.3724 27.1784C68.3724 26.6667 68.465 26.2223 68.6502 25.8453C68.8423 25.4615 69.1098 25.1653 69.4528 24.9566C69.7957 24.7479 70.2004 24.6435 70.6669 24.6435C71.1402 24.6435 71.5483 24.7479 71.8913 24.9566C72.2342 25.1653 72.4983 25.4615 72.6835 25.8453C72.8756 26.2223 72.9716 26.6667 72.9716 27.1784C72.9716 27.6968 72.8756 28.1445 72.6835 28.5215C72.4983 28.8986 72.2342 29.1915 71.8913 29.4002C71.5483 29.6089 71.1402 29.7132 70.6669 29.7132ZM70.6669 29.1982C71.1813 29.1982 71.586 29.0231 71.881 28.673C72.1828 28.3229 72.3337 27.8247 72.3337 27.1784C72.3337 26.5388 72.1828 26.0439 71.881 25.6938C71.586 25.3437 71.1813 25.1687 70.6669 25.1687C70.1661 25.1687 69.7649 25.3437 69.463 25.6938C69.1612 26.0439 69.0103 26.5388 69.0103 27.1784C69.0103 27.8247 69.1612 28.3229 69.463 28.673C69.7649 29.0231 70.1661 29.1982 70.6669 29.1982ZM63.827 29.2801C64.3209 29.5696 64.9142 29.7144 65.607 29.7144C66.1146 29.7144 66.5776 29.6369 66.996 29.4821C67.4144 29.3205 67.7711 29.0882 68.0661 28.7853L67.7883 28.2702C67.4727 28.5732 67.1401 28.7954 66.7902 28.9367C66.4404 29.0714 66.0494 29.1387 65.6173 29.1387C64.7667 29.1387 64.1116 28.8694 63.6521 28.3308C63.1994 27.7922 62.973 27.0381 62.973 26.0686C62.973 25.0991 63.1994 24.3484 63.6521 23.8165C64.1116 23.2779 64.7667 23.0086 65.6173 23.0086C66.0494 23.0086 66.4404 23.0793 66.7902 23.2207C67.1401 23.3553 67.4727 23.5741 67.7883 23.8771L68.0661 23.3621C67.7711 23.0591 67.4144 22.8302 66.996 22.6753C66.5776 22.5137 66.1146 22.4329 65.607 22.4329C64.9142 22.4329 64.3209 22.5811 63.827 22.8773C63.3331 23.1668 62.9524 23.5842 62.6849 24.1296C62.4242 24.6682 62.2939 25.3145 62.2939 26.0686C62.2939 26.8227 62.4242 27.4724 62.6849 28.0177C62.9524 28.5631 63.3331 28.9839 63.827 29.2801ZM55.8965 31.4503L56.719 29.6103L54.6001 24.7345H55.2997L57.0646 28.9523L58.8392 24.7345H59.5182L56.5756 31.4503H55.8965ZM50.8931 29.3602C51.2224 29.5958 51.6202 29.7137 52.0867 29.7137C52.5325 29.7137 52.9201 29.6127 53.2493 29.4107C53.5854 29.202 53.8427 28.9091 54.021 28.5321C54.2062 28.1483 54.2988 27.6972 54.2988 27.1788C54.2988 26.6604 54.2062 26.2126 54.021 25.8356C53.8427 25.4586 53.5889 25.1657 53.2596 24.957C52.9304 24.7483 52.5394 24.6439 52.0867 24.6439C51.6202 24.6439 51.2224 24.7617 50.8931 24.9974C50.6499 25.1715 50.4647 25.3896 50.3375 25.6519V22.513H49.7099V29.6329H50.3375L50.3375 28.7057C50.4647 28.968 50.6499 29.1861 50.8931 29.3602ZM53.2082 28.6735C52.9064 29.0236 52.5017 29.1986 51.9941 29.1986C51.4865 29.1986 51.0818 29.0236 50.78 28.6735C50.4781 28.3234 50.3272 27.8251 50.3272 27.1788C50.3272 26.5392 50.4781 26.0443 50.78 25.6942C51.0818 25.3441 51.4865 25.1691 51.9941 25.1691C52.5017 25.1691 52.9064 25.3441 53.2082 25.6942C53.51 26.0443 53.6609 26.5392 53.6609 27.1788C53.6609 27.8251 53.51 28.3234 53.2082 28.6735Z" fill="#0E141D"/>
<path opacity="0.3" d="M27.9769 14.1328C27.9769 15.9509 27.6151 17.7511 26.9121 19.4307C26.2091 21.1104 25.1787 22.6366 23.8798 23.9221C22.5808 25.2077 21.0388 26.2274 19.3416 26.9232C17.6445 27.6189 15.8255 27.977 13.9885 27.977C12.1515 27.977 10.3325 27.6189 8.63538 26.9232C6.93823 26.2274 5.39617 25.2077 4.09722 23.9221C2.79828 22.6366 1.76791 21.1104 1.06492 19.4307C0.361942 17.7511 0.00012191 15.9509 0.00012207 14.1328L13.9885 14.1328H27.9769Z" fill="#00CAA8"/>
<path d="M13.2675 14.1328C13.2675 12.2769 13.6293 10.4391 14.3323 8.7245C15.0353 7.00986 16.0657 5.45189 17.3646 4.13956C18.6635 2.82723 20.2056 1.78623 21.9028 1.076C23.5999 0.36577 25.4189 0.000218915 27.2559 0.000219076C29.0929 0.000219236 30.9119 0.36577 32.609 1.076C34.3062 1.78623 35.8482 2.82723 37.1472 4.13956C38.4461 5.45189 39.4765 7.00986 40.1795 8.7245C40.8824 10.4391 41.2443 12.2769 41.2443 14.1328L27.2559 14.1328L13.2675 14.1328Z" fill="#00CAA8"/>
</svg>
